<?xml version="1.0" encoding="UTF-8" standalone="no"?>
<svg
   xmlns:dc="http://purl.org/dc/elements/1.1/"
   xmlns:cc="http://creativecommons.org/ns#"
   xmlns:rdf="http://www.w3.org/1999/02/22-rdf-syntax-ns#"
   xmlns:svg="http://www.w3.org/2000/svg"
   xmlns="http://www.w3.org/2000/svg"
   xmlns:sodipodi="http://sodipodi.sourceforge.net/DTD/sodipodi-0.dtd"
   xmlns:inkscape="http://www.inkscape.org/namespaces/inkscape"
   sodipodi:docname="icon.svg"
   inkscape:version="1.0beta1 (32d4812, 2019-09-19)"
   id="svg1038"
   version="1.1"
   viewBox="0 0 135.46666 135.46667"
   height="512"
   width="512">
  <defs
     id="defs1032" />
  <sodipodi:namedview
     inkscape:snap-smooth-nodes="true"
     inkscape:snap-bbox="false"
     inkscape:window-maximized="0"
     inkscape:window-y="0"
     inkscape:window-x="0"
     inkscape:window-height="900"
     inkscape:window-width="1440"
     units="px"
     showgrid="false"
     inkscape:document-rotation="0"
     inkscape:current-layer="layer1"
     inkscape:document-units="mm"
     inkscape:cy="500"
     inkscape:cx="462.85714"
     inkscape:zoom="0.5"
     inkscape:pageshadow="2"
     inkscape:pageopacity="0.0"
     borderopacity="1.0"
     bordercolor="#666666"
     pagecolor="#ffffff"
     id="base" />
  <metadata
     id="metadata1035">
    <rdf:RDF>
      <cc:Work
         rdf:about="">
        <dc:format>image/svg+xml</dc:format>
        <dc:type
           rdf:resource="http://purl.org/dc/dcmitype/StillImage" />
        <dc:title></dc:title>
      </cc:Work>
    </rdf:RDF>
  </metadata>
  <g
     id="layer1"
     inkscape:groupmode="layer"
     inkscape:label="Layer 1">
    <rect
       y="0"
       x="0"
       height="135.99583"
       width="135.99583"
       id="rect1918"
       style="opacity:0.81;fill:#00abe9;stroke:#ffffff;stroke-width:6.00001;stroke-linecap:round;paint-order:stroke markers fill;stop-color:#000000" />
    <rect
       inkscape:export-ydpi="96"
       inkscape:export-xdpi="96"
       style="display:inline;opacity:0.81;fill:#ffffff;fill-opacity:1;stroke:#ffffff;stroke-width:13.2376;stroke-linecap:round;stroke-linejoin:round;stroke-miterlimit:4;stroke-dasharray:none;stroke-opacity:1;paint-order:stroke markers fill;stop-color:#000000"
       id="rect4918"
       width="74.566071"
       height="78.454857"
       x="-27.080034"
       y="57.737808"
       transform="matrix(0.75031667,-0.66107858,0.64647764,0.76293293,0,0)" />
    <rect
       inkscape:export-ydpi="96"
       inkscape:export-xdpi="96"
       transform="matrix(0.76858279,-0.63975034,0.66769874,0.74443159,0,0)"
       y="19.259773"
       x="-16.731684"
       height="37.683674"
       width="36.112347"
       id="rect4918-8"
       style="display:inline;opacity:0.81;fill:#000000;fill-opacity:0;stroke:#000000;stroke-width:6.38463;stroke-linecap:round;stroke-linejoin:round;stroke-miterlimit:4;stroke-dasharray:none;stroke-opacity:0;paint-order:stroke markers fill;stop-color:#000000" />
    <g
       inkscape:export-ydpi="96"
       inkscape:export-xdpi="96"
       id="g1396"
       transform="matrix(0.70310588,0,0,0.70310588,0.90156743,-25.95109)"
       style="display:inline">
      <g
         id="g4979">
        <path
           style="opacity:1;fill:#00acea;fill-opacity:1;stroke:#ffffff;stroke-width:3.96294;stroke-linecap:round;stroke-linejoin:miter;stroke-miterlimit:4;stroke-dasharray:none;stroke-opacity:1;stop-opacity:1"
           d="m 119.72598,72.217216 -1.22129,123.917364 v 0"
           id="path1093"
           inkscape:connector-curvature="0" />
        <path
           inkscape:connector-curvature="0"
           id="path1097"
           d="m 86.495352,72.217216 -1.22129,123.917364 v 0"
           style="opacity:1;fill:#00acea;fill-opacity:1;stroke:#ffffff;stroke-width:3.96294;stroke-linecap:round;stroke-linejoin:miter;stroke-miterlimit:4;stroke-dasharray:none;stroke-opacity:1;stop-opacity:1" />
        <g
           style="opacity:1;stop-opacity:1"
           id="g1111"
           transform="matrix(2.4495366,0,0,2.5649947,-137.89013,-151.49582)">
          <path
             id="path976"
             fill="#00efd1"
             d="m 113.44208,117.80041 a 2.3051997,2.4064156 0 1 1 -2.3048,2.40599 2.3051997,2.4064156 0 0 1 2.3048,-2.40599 z"
             inkscape:connector-curvature="0"
             style="opacity:1;stroke-width:3.31399;stroke-linecap:round;stroke-miterlimit:4;stroke-dasharray:none;stop-opacity:1" />
          <path
             id="path978"
             fill="#00acea"
             d="m 108.58356,112.65542 c 1.77805,1.06617 3.20081,2.73211 3.66656,5.31107 0,0 -3.51736,3.79312 -9.24223,0.13682 l 1.80194,-3.04104 a 4.3276591,4.5176764 0 0 1 2.33612,-1.91722 z"
             inkscape:connector-curvature="0"
             style="opacity:1;stroke-width:3.31399;stroke-linecap:round;stroke-miterlimit:4;stroke-dasharray:none;stop-opacity:1" />
          <path
             id="path980"
             fill="#fedb41"
             d="m 108.58356,112.65542 -1.43761,0.48963 a 4.3276591,4.5176764 0 0 0 -2.33612,1.91722 l -1.80194,3.04104 a 16.303569,17.01942 0 0 1 -1.97837,-1.50073 q -0.502,-0.44145 -1.02215,-0.96034 c 0,0 -8.903435,8.13269 -18.283327,5.31108 l 16.216765,-9.95782 c 0,0 0.451726,-0.0646 1.194438,-0.11101 1.167234,-0.0731 3.054914,-0.10068 5.045634,0.24009 1.49696,0.25642 3.05244,0.72024 4.40268,1.53084 z"
             inkscape:connector-curvature="0"
             style="opacity:1;stroke-width:3.31399;stroke-linecap:round;stroke-miterlimit:4;stroke-dasharray:none;stop-opacity:1" />
          <path
             id="path982"
             fill="#00acea"
             d="m 104.185,111.09617 -0.004,0.0284 c -1.99072,-0.34077 -3.8784,-0.31323 -5.045632,-0.24009 l -8.26e-4,-0.0206 c -14.308476,-2.32338 -18.682297,-8.49926 -18.682297,-8.49926 -2.862025,-4.480672 3.823178,-6.838473 3.823178,-6.838473 2.950226,6.066603 17.003987,13.809473 17.003987,13.809473 z"
             inkscape:connector-curvature="0"
             style="opacity:1;stroke-width:3.31399;stroke-linecap:round;stroke-miterlimit:4;stroke-dasharray:none;stop-opacity:1" />
        </g>
        <path
           style="opacity:1;stroke-width:8.30685;stroke-linecap:round;stroke-miterlimit:4;stroke-dasharray:none;stop-opacity:1"
           inkscape:connector-curvature="0"
           d="m 117.31482,133.46527 -7.11763,-4.5159 c 0,0 -34.425203,-19.86043 -41.65189,-35.421229 -1.999001,-4.301837 -1.918232,-8.272577 1.538625,-11.406821 0,0 1.409395,-1.447917 3.890981,-2.564756 l 0.0042,0.0087 43.291474,53.237726 c 0.0171,0.2229 0.0323,0.44365 0.0443,0.66216 z"
           fill="#00efd1"
           id="path984" />
        <path
           style="opacity:1;stroke-width:8.30685;stroke-linecap:round;stroke-miterlimit:4;stroke-dasharray:none;stop-opacity:1"
           inkscape:connector-curvature="0"
           d="m 117.27041,132.80312 -43.291465,-53.23773 -0.0042,-0.0087 c 5.007598,-2.255772 14.378682,-3.160717 25.318658,11.929931 0,0 16.741107,26.292189 17.976847,41.316619 z"
           fill="#00acea"
           id="path986" />
        <path
           style="opacity:1;stroke-width:8.30685;stroke-linecap:round;stroke-miterlimit:4;stroke-dasharray:none;stop-opacity:1"
           inkscape:connector-curvature="0"
           d="m 138.09013,164.84972 a 6.8182065,7.4530625 0 0 0 2.52718,-0.52972 l 3.17313,8.23487 a 1.2115154,1.3243218 0 0 0 2.233,-1.02813 l -3.32426,-8.62685 a 6.8555614,7.4938957 0 0 0 -6.57236,-12.72894 c -1.27645,-5.76257 -4.4121,-10.24495 -9.33371,-13.33525 -2.84342,-1.78785 -6.28576,-3.09782 -10.24225,-3.90256 -1.41681,-15.23126 -17.476228,-40.605268 -18.163078,-41.684356 -0.0245,-0.02206 -0.0294,-0.04422 -0.04409,-0.06612 C 93.346635,84.291316 88.133531,79.943121 82.848656,78.263894 a 16.823304,18.389754 0 0 0 -11.234309,0.586893 15.199066,16.61428 0 0 0 -4.226676,2.791887 c -4.035122,3.676774 -3.680429,8.169518 -2.37703,11.676107 -2.623944,1.197409 -8.571664,4.436482 -10.241513,9.794249 -0.92323,2.9614 -0.417156,6.05986 1.504016,9.20932 0,0.0179 0.02449,0.0357 0.03429,0.0528 0.115128,0.17031 2.902211,4.2237 10.081558,9.00893 5.903383,3.93457 15.967794,9.08439 31.349659,12.33827 L 59.78284,158.12633 a 1.2115154,1.3243218 0 0 0 0.278512,2.41402 37.213715,40.678754 0 0 0 10.338269,1.55893 c 6.885403,0 14.174734,-1.92577 21.524568,-5.73189 0.100431,-0.0521 0.198413,-0.10465 0.298844,-0.15672 l -5.175626,8.27129 a 1.2076789,1.3201281 0 0 0 -0.183715,0.46352 l -4.28473,21.28383 a 1.2115154,1.3243218 0 1 0 2.366253,0.56925 l 4.234024,-21.03311 7.445366,-11.8988 a 1.2206017,1.3342542 0 0 0 0.127376,-0.26289 66.79609,73.015601 0 0 0 8.379619,-6.19231 q 0.42818,0.43105 0.85587,0.84358 l -7.183757,9.30978 a 1.2115154,1.3243218 0 0 0 -0.280717,0.97118 l 2.337104,28.52279 a 1.2115154,1.3243218 0 0 0 1.20542,1.20622 c 0.0367,0 0.0735,-0.002 0.11022,-0.005 a 1.2115154,1.3243218 0 0 0 1.09862,-1.43712 l -2.29105,-27.97191 6.86091,-8.89147 a 40.267136,44.016484 0 0 0 4.05055,3.12475 v 0.002 a 31.213886,34.12027 0 0 0 2.83827,1.68961 l -5.72676,6.0983 a 1.2115154,1.3243218 0 0 0 -0.33485,1.24795 l 5.0622,23.84021 a 1.2115846,1.3243976 0 0 0 2.36039,-0.59882 l -4.90643,-23.11271 5.9737,-6.36139 c 5.19106,2.05469 9.4094,1.60771 12.28834,0.67893 a 17.468436,19.094955 0 0 0 1.9273,-0.75903 6.8591963,7.4978689 0 0 0 6.7105,9.03981 z m 4.43611,-7.49783 a 4.4351557,4.8481214 0 1 1 -4.43611,-4.84702 4.4422229,4.8558466 0 0 1 4.43611,4.84702 z M 77.912105,80.121819 a 15.216633,16.633482 0 0 1 4.258764,0.684249 c 4.784435,1.520744 9.578178,5.554647 14.248955,11.988628 0.60675,0.960591 13.575826,21.613174 16.991946,36.125534 L 74.18685,80.683345 a 13.850043,15.139647 0 0 1 3.7255,-0.561085 z m -8.955016,3.537708 c 0.0245,-0.01539 0.03674,-0.03473 0.05389,-0.0511 a 12.240546,13.380286 0 0 1 2.746175,-1.927104 l 38.757546,47.662557 -1.6091,-1.02081 c -0.0245,-0.008 -0.0294,-0.018 -0.0416,-0.0259 -0.34098,-0.19673 -34.164667,-19.83768 -41.137273,-34.849755 -1.934154,-4.162109 -1.542473,-7.272291 1.231872,-9.787837 z M 58.267556,110.81962 c -1.484174,-2.4478 -1.879039,-4.68789 -1.207621,-6.84742 1.37321,-4.41596 6.81657,-7.27185 9.030217,-8.27216 8.220644,15.48112 39.954148,33.96468 41.619588,34.92701 l 2.31824,1.47064 a 61.883398,67.645477 0 0 0 -6.71467,0 c -0.0269,-0.008 -0.0563,-0.0128 -0.0833,-0.0205 -17.796378,-3.02518 -29.083108,-8.65642 -35.417119,-12.84724 -6.595623,-4.36472 -9.330775,-8.11082 -9.544375,-8.41164 z m 46.115954,33.82846 c -0.0539,0.0511 -5.418863,5.14279 -13.497679,9.32543 -6.790361,3.51609 -16.807741,7.01141 -27.293717,4.7753 l 36.925296,-23.74244 c 0.40785,-0.0523 1.3274,-0.1598 2.60043,-0.2429 a 55.912846,61.118996 0 0 1 12.09068,0.60079 34.200271,37.384723 0 0 1 7.7807,2.3679 l -0.69811,0.24907 a 11.824996,12.926043 0 0 0 -6.37615,5.4798 l -3.76764,6.6576 a 40.444421,44.210277 0 0 1 -3.68239,-3.02388 c -0.80761,-0.74425 -1.6309,-1.55387 -2.44586,-2.40586 a 1.2115154,1.3243218 0 0 0 -1.63556,-0.041 z m 24.26488,9.41815 c -4.50274,1.40818 -9.35282,0.54452 -14.43416,-2.56566 l 3.76128,-6.64677 a 9.4003495,10.275634 0 0 1 5.06834,-4.35524 l 2.99407,-1.06786 c 4.14682,2.75901 6.77248,6.68628 7.80569,11.69818 a 14.600375,15.959844 0 0 1 -5.19522,2.93735 z"
           fill="#083863"
           id="path988" />
        <path
           style="opacity:0.81;fill:#00acea;fill-opacity:1;stroke:#000000;stroke-width:3.10938;stroke-linecap:round;stroke-linejoin:miter;stroke-miterlimit:4;stroke-dasharray:none;stroke-opacity:1;stop-opacity:1"
           d="m 51.639264,73.603477 -1.21427,116.872843 v 0"
           id="path874"
           inkscape:connector-curvature="0" />
        <path
           inkscape:connector-curvature="0"
           id="path874-0"
           d="m 117.71882,73.603477 -1.21428,116.872963 v 0"
           style="opacity:0.81;fill:#00acea;fill-opacity:1;stroke:#000000;stroke-width:3.10938;stroke-linecap:round;stroke-linejoin:miter;stroke-miterlimit:4;stroke-dasharray:none;stroke-opacity:1;stop-opacity:1" />
        <path
           style="opacity:0.81;fill:#00acea;fill-opacity:1;stroke:#000000;stroke-width:3.10938;stroke-linecap:round;stroke-linejoin:miter;stroke-miterlimit:4;stroke-dasharray:none;stroke-opacity:1;stop-opacity:1"
           d="m 147.72097,73.603477 -1.2142,116.872893 v 0"
           id="path874-0-2"
           inkscape:connector-curvature="0" />
        <path
           inkscape:connector-curvature="0"
           id="path874-0-2-2"
           d="M 166.86863,72.12497 35.247113,70.638238 v 0"
           style="opacity:0.81;fill:#00acea;fill-opacity:1;stroke:#000000;stroke-width:3.10938;stroke-linecap:round;stroke-linejoin:miter;stroke-miterlimit:4;stroke-dasharray:none;stroke-opacity:1;stop-opacity:1" />
        <path
           style="opacity:0.81;fill:#00acea;fill-opacity:1;stroke:#000000;stroke-width:3.10938;stroke-linecap:round;stroke-linejoin:miter;stroke-miterlimit:4;stroke-dasharray:none;stroke-opacity:1;stop-opacity:1"
           d="M 166.86863,191.37197 35.247113,189.88526 v 0"
           id="path874-0-2-2-7"
           inkscape:connector-curvature="0" />
        <path
           style="opacity:0.81;fill:#00acea;fill-opacity:1;stroke:#000000;stroke-width:3.10938;stroke-linecap:round;stroke-linejoin:miter;stroke-miterlimit:4;stroke-dasharray:none;stroke-opacity:1;stop-opacity:1"
           d="M 84.679048,73.603477 83.464773,190.47644 v 0"
           id="path1052"
           inkscape:connector-curvature="0" />
      </g>
    </g>
  </g>
</svg>
